<mxfile host="app.diagrams.net" modified="2023-12-29T03:45:21.178Z" agent="Mozilla/5.0 (Windows NT 10.0; Win64; x64; rv:121.0) Gecko/20100101 Firefox/121.0" etag="9hvO5ON4IUpQGAAEaNca" version="22.1.15" type="github">
  <diagram name="Page-1" id="38b20595-45e3-9b7f-d5ca-b57f44c5b66d">
    <mxGraphModel dx="1434" dy="531" grid="1" gridSize="10" guides="1" tooltips="1" connect="1" arrows="1" fold="1" page="1" pageScale="1" pageWidth="1100" pageHeight="850" background="none" math="0" shadow="0">
      <root>
        <mxCell id="0" />
        <mxCell id="1" parent="0" />
        <mxCell id="wXzBfaYUIQIDxY5aJREp-1" value="" style="rounded=0;whiteSpace=wrap;html=1;" vertex="1" parent="1">
          <mxGeometry x="1520" y="940" width="120" height="60" as="geometry" />
        </mxCell>
        <mxCell id="wXzBfaYUIQIDxY5aJREp-4" value="" style="whiteSpace=wrap;html=1;aspect=fixed;" vertex="1" parent="1">
          <mxGeometry x="1130" y="890" width="560" height="560" as="geometry" />
        </mxCell>
        <mxCell id="wXzBfaYUIQIDxY5aJREp-5" value="" style="rounded=0;whiteSpace=wrap;html=1;" vertex="1" parent="1">
          <mxGeometry x="1530" y="920" width="140" height="130" as="geometry" />
        </mxCell>
        <mxCell id="wXzBfaYUIQIDxY5aJREp-7" value="" style="rounded=0;whiteSpace=wrap;html=1;" vertex="1" parent="1">
          <mxGeometry x="1150" y="910" width="370" height="290" as="geometry" />
        </mxCell>
        <mxCell id="wXzBfaYUIQIDxY5aJREp-11" value="Nhà vệ sinh" style="text;html=1;strokeColor=none;fillColor=none;align=center;verticalAlign=middle;whiteSpace=wrap;rounded=0;" vertex="1" parent="1">
          <mxGeometry x="1560" y="980" width="60" height="10" as="geometry" />
        </mxCell>
        <mxCell id="wXzBfaYUIQIDxY5aJREp-12" value="Phòng 1" style="text;html=1;strokeColor=none;fillColor=none;align=center;verticalAlign=middle;whiteSpace=wrap;rounded=0;" vertex="1" parent="1">
          <mxGeometry x="1320" y="980" width="60" height="30" as="geometry" />
        </mxCell>
        <mxCell id="wXzBfaYUIQIDxY5aJREp-13" value="Hành lang" style="text;html=1;strokeColor=none;fillColor=none;align=center;verticalAlign=middle;whiteSpace=wrap;rounded=0;" vertex="1" parent="1">
          <mxGeometry x="1580" y="1110" width="60" height="30" as="geometry" />
        </mxCell>
        <mxCell id="wXzBfaYUIQIDxY5aJREp-14" value="" style="edgeStyle=isometricEdgeStyle;endArrow=none;html=1;rounded=0;" edge="1" parent="1">
          <mxGeometry width="50" height="100" relative="1" as="geometry">
            <mxPoint x="1600" y="1430" as="sourcePoint" />
            <mxPoint x="1650" y="1330" as="targetPoint" />
          </mxGeometry>
        </mxCell>
        <mxCell id="wXzBfaYUIQIDxY5aJREp-15" value="" style="edgeStyle=isometricEdgeStyle;endArrow=none;html=1;rounded=0;" edge="1" parent="1">
          <mxGeometry width="50" height="100" relative="1" as="geometry">
            <mxPoint x="1560" y="1430" as="sourcePoint" />
            <mxPoint x="1610" y="1330" as="targetPoint" />
          </mxGeometry>
        </mxCell>
        <mxCell id="wXzBfaYUIQIDxY5aJREp-16" value="cầu thang" style="text;html=1;strokeColor=none;fillColor=none;align=center;verticalAlign=middle;whiteSpace=wrap;rounded=0;" vertex="1" parent="1">
          <mxGeometry x="1620" y="1350" width="60" height="30" as="geometry" />
        </mxCell>
        <mxCell id="wXzBfaYUIQIDxY5aJREp-17" value="Ban Công 1" style="rounded=1;whiteSpace=wrap;html=1;" vertex="1" parent="1">
          <mxGeometry x="1140" y="1220" width="50" height="220" as="geometry" />
        </mxCell>
        <mxCell id="wXzBfaYUIQIDxY5aJREp-18" value="" style="rounded=1;whiteSpace=wrap;html=1;" vertex="1" parent="1">
          <mxGeometry x="1380" y="1270" width="120" height="60" as="geometry" />
        </mxCell>
        <mxCell id="wXzBfaYUIQIDxY5aJREp-19" value="" style="rounded=0;whiteSpace=wrap;html=1;" vertex="1" parent="1">
          <mxGeometry x="1190" y="1220" width="330" height="220" as="geometry" />
        </mxCell>
        <mxCell id="wXzBfaYUIQIDxY5aJREp-20" value="Ban công 2" style="rounded=1;whiteSpace=wrap;html=1;" vertex="1" parent="1">
          <mxGeometry x="1400" y="1380" width="120" height="60" as="geometry" />
        </mxCell>
        <mxCell id="wXzBfaYUIQIDxY5aJREp-21" value="Phòng 2" style="text;html=1;strokeColor=none;fillColor=none;align=center;verticalAlign=middle;whiteSpace=wrap;rounded=0;" vertex="1" parent="1">
          <mxGeometry x="1290" y="1275" width="60" height="30" as="geometry" />
        </mxCell>
        <mxCell id="wXzBfaYUIQIDxY5aJREp-22" value="" style="endArrow=none;dashed=1;html=1;rounded=0;entryX=0.714;entryY=1;entryDx=0;entryDy=0;entryPerimeter=0;" edge="1" parent="1" target="wXzBfaYUIQIDxY5aJREp-4">
          <mxGeometry width="50" height="50" relative="1" as="geometry">
            <mxPoint x="1530" y="1070" as="sourcePoint" />
            <mxPoint x="1530" y="1200" as="targetPoint" />
          </mxGeometry>
        </mxCell>
        <mxCell id="wXzBfaYUIQIDxY5aJREp-23" value="" style="endArrow=none;dashed=1;html=1;rounded=0;" edge="1" parent="1" source="wXzBfaYUIQIDxY5aJREp-19">
          <mxGeometry width="50" height="50" relative="1" as="geometry">
            <mxPoint x="1420" y="1320" as="sourcePoint" />
            <mxPoint x="1530" y="1370" as="targetPoint" />
          </mxGeometry>
        </mxCell>
        <mxCell id="wXzBfaYUIQIDxY5aJREp-24" value="" style="endArrow=none;dashed=1;html=1;dashPattern=1 3;strokeWidth=2;rounded=0;" edge="1" parent="1" target="wXzBfaYUIQIDxY5aJREp-4">
          <mxGeometry width="50" height="50" relative="1" as="geometry">
            <mxPoint x="1410" y="1320" as="sourcePoint" />
            <mxPoint x="1460" y="1270" as="targetPoint" />
          </mxGeometry>
        </mxCell>
        <mxCell id="wXzBfaYUIQIDxY5aJREp-25" value="" style="rounded=0;whiteSpace=wrap;html=1;" vertex="1" parent="1">
          <mxGeometry x="1680" y="1140" width="20" height="130" as="geometry" />
        </mxCell>
        <mxCell id="wXzBfaYUIQIDxY5aJREp-26" value="Cửa sổ" style="text;html=1;strokeColor=none;fillColor=none;align=center;verticalAlign=middle;whiteSpace=wrap;rounded=0;" vertex="1" parent="1">
          <mxGeometry x="1700" y="1165" width="60" height="10" as="geometry" />
        </mxCell>
        <mxCell id="wXzBfaYUIQIDxY5aJREp-27" value="" style="rounded=0;whiteSpace=wrap;html=1;" vertex="1" parent="1">
          <mxGeometry x="1240" y="1440" width="120" height="10" as="geometry" />
        </mxCell>
        <mxCell id="wXzBfaYUIQIDxY5aJREp-28" value="Cửa sổ" style="text;html=1;strokeColor=none;fillColor=none;align=center;verticalAlign=middle;whiteSpace=wrap;rounded=0;" vertex="1" parent="1">
          <mxGeometry x="1270" y="1450" width="60" height="30" as="geometry" />
        </mxCell>
        <mxCell id="wXzBfaYUIQIDxY5aJREp-29" value="Text" style="text;html=1;strokeColor=none;fillColor=none;align=center;verticalAlign=middle;whiteSpace=wrap;rounded=0;" vertex="1" parent="1">
          <mxGeometry x="1410" y="1280" width="60" height="30" as="geometry" />
        </mxCell>
        <mxCell id="wXzBfaYUIQIDxY5aJREp-30" value="&lt;div&gt;Layout Tầng 2,3,4&lt;/div&gt;&lt;div&gt;&lt;br&gt;&lt;/div&gt;" style="text;html=1;strokeColor=none;fillColor=none;align=center;verticalAlign=middle;whiteSpace=wrap;rounded=0;fontStyle=1" vertex="1" parent="1">
          <mxGeometry x="1760" y="930" width="90" height="70" as="geometry" />
        </mxCell>
        <mxCell id="wXzBfaYUIQIDxY5aJREp-33" value="Vỉa hè" style="text;html=1;strokeColor=none;fillColor=none;spacing=5;spacingTop=-20;whiteSpace=wrap;overflow=hidden;rounded=0;" vertex="1" parent="1">
          <mxGeometry x="1140" y="1500" width="190" height="120" as="geometry" />
        </mxCell>
        <mxCell id="wXzBfaYUIQIDxY5aJREp-34" value="Vỉa hè" style="text;html=1;strokeColor=none;fillColor=none;spacing=5;spacingTop=-20;whiteSpace=wrap;overflow=hidden;rounded=0;" vertex="1" parent="1">
          <mxGeometry x="1400" y="1500" width="190" height="120" as="geometry" />
        </mxCell>
        <mxCell id="wXzBfaYUIQIDxY5aJREp-35" value="Vỉa hè" style="text;html=1;strokeColor=none;fillColor=none;spacing=5;spacingTop=-20;whiteSpace=wrap;overflow=hidden;rounded=0;" vertex="1" parent="1">
          <mxGeometry x="1590" y="1510" width="190" height="120" as="geometry" />
        </mxCell>
        <mxCell id="wXzBfaYUIQIDxY5aJREp-36" value="Vỉa hè" style="text;html=1;strokeColor=none;fillColor=none;spacing=5;spacingTop=-20;whiteSpace=wrap;overflow=hidden;rounded=0;" vertex="1" parent="1">
          <mxGeometry x="1225" y="1510" width="190" height="120" as="geometry" />
        </mxCell>
        <mxCell id="wXzBfaYUIQIDxY5aJREp-37" value="Vỉa hè" style="text;html=1;strokeColor=none;fillColor=none;spacing=5;spacingTop=-20;whiteSpace=wrap;overflow=hidden;rounded=0;" vertex="1" parent="1">
          <mxGeometry x="1040" y="1140" width="190" height="120" as="geometry" />
        </mxCell>
        <mxCell id="wXzBfaYUIQIDxY5aJREp-38" value="Vỉa hè" style="text;html=1;strokeColor=none;fillColor=none;spacing=5;spacingTop=-20;whiteSpace=wrap;overflow=hidden;rounded=0;" vertex="1" parent="1">
          <mxGeometry x="1040" y="1220" width="190" height="120" as="geometry" />
        </mxCell>
        <mxCell id="wXzBfaYUIQIDxY5aJREp-39" value="Vỉa hè" style="text;html=1;strokeColor=none;fillColor=none;spacing=5;spacingTop=-20;whiteSpace=wrap;overflow=hidden;rounded=0;" vertex="1" parent="1">
          <mxGeometry x="1035" y="1290" width="190" height="120" as="geometry" />
        </mxCell>
        <mxCell id="wXzBfaYUIQIDxY5aJREp-40" value="Vỉa hè" style="text;html=1;strokeColor=none;fillColor=none;spacing=5;spacingTop=-20;whiteSpace=wrap;overflow=hidden;rounded=0;" vertex="1" parent="1">
          <mxGeometry x="1040" y="1360" width="190" height="120" as="geometry" />
        </mxCell>
        <mxCell id="wXzBfaYUIQIDxY5aJREp-41" value="Vỉa hè" style="text;html=1;strokeColor=none;fillColor=none;spacing=5;spacingTop=-20;whiteSpace=wrap;overflow=hidden;rounded=0;" vertex="1" parent="1">
          <mxGeometry x="1040" y="970" width="190" height="120" as="geometry" />
        </mxCell>
        <mxCell id="wXzBfaYUIQIDxY5aJREp-42" value="Vỉa hè" style="text;html=1;strokeColor=none;fillColor=none;spacing=5;spacingTop=-20;whiteSpace=wrap;overflow=hidden;rounded=0;" vertex="1" parent="1">
          <mxGeometry x="1040" y="1045" width="190" height="120" as="geometry" />
        </mxCell>
      </root>
    </mxGraphModel>
  </diagram>
</mxfile>
